<mxfile host="app.diagrams.net" agent="Mozilla/5.0 (Macintosh; Intel Mac OS X 10_15_7) AppleWebKit/537.36 (KHTML, like Gecko) Chrome/140.0.0.0 Safari/537.36" version="28.2.5">
  <diagram name="Page-1" id="AsdL_5mTY6G0yCW5HyQV">
    <mxGraphModel dx="1257" dy="844" grid="1" gridSize="10" guides="1" tooltips="1" connect="1" arrows="1" fold="1" page="1" pageScale="1" pageWidth="827" pageHeight="1169" math="0" shadow="0">
      <root>
        <mxCell id="0" />
        <mxCell id="1" parent="0" />
        <mxCell id="72SExVHrg0FJt113ZIdG-1" value="Receive input" style="rounded=1;whiteSpace=wrap;html=1;strokeColor=none;" vertex="1" parent="1">
          <mxGeometry x="150" y="300" width="270" height="50" as="geometry" />
        </mxCell>
        <mxCell id="72SExVHrg0FJt113ZIdG-2" value="Validate Person" style="rounded=1;whiteSpace=wrap;html=1;" vertex="1" parent="1">
          <mxGeometry x="150" y="370" width="270" height="50" as="geometry" />
        </mxCell>
        <mxCell id="72SExVHrg0FJt113ZIdG-3" value="Find SSN in DB" style="rounded=1;whiteSpace=wrap;html=1;" vertex="1" parent="1">
          <mxGeometry x="150" y="440" width="270" height="50" as="geometry" />
        </mxCell>
        <mxCell id="72SExVHrg0FJt113ZIdG-4" value="Find municipality in API" style="rounded=1;whiteSpace=wrap;html=1;" vertex="1" parent="1">
          <mxGeometry x="150" y="510" width="270" height="50" as="geometry" />
        </mxCell>
        <mxCell id="72SExVHrg0FJt113ZIdG-5" value="Create new person in API" style="rounded=1;whiteSpace=wrap;html=1;" vertex="1" parent="1">
          <mxGeometry x="150" y="584.5" width="270" height="50" as="geometry" />
        </mxCell>
        <mxCell id="72SExVHrg0FJt113ZIdG-6" value="" style="endArrow=classic;html=1;rounded=0;" edge="1" parent="1">
          <mxGeometry width="50" height="50" relative="1" as="geometry">
            <mxPoint x="284.5" y="634.5" as="sourcePoint" />
            <mxPoint x="285" y="660" as="targetPoint" />
          </mxGeometry>
        </mxCell>
        <mxCell id="72SExVHrg0FJt113ZIdG-7" value="" style="endArrow=classic;html=1;rounded=0;entryX=0.5;entryY=0;entryDx=0;entryDy=0;" edge="1" parent="1" target="72SExVHrg0FJt113ZIdG-2">
          <mxGeometry width="50" height="50" relative="1" as="geometry">
            <mxPoint x="284.5" y="350" as="sourcePoint" />
            <mxPoint x="284.5" y="400" as="targetPoint" />
          </mxGeometry>
        </mxCell>
        <mxCell id="72SExVHrg0FJt113ZIdG-8" value="" style="endArrow=classic;html=1;rounded=0;entryX=0.5;entryY=0;entryDx=0;entryDy=0;" edge="1" parent="1" target="72SExVHrg0FJt113ZIdG-3">
          <mxGeometry width="50" height="50" relative="1" as="geometry">
            <mxPoint x="284.5" y="420" as="sourcePoint" />
            <mxPoint x="284.5" y="470" as="targetPoint" />
          </mxGeometry>
        </mxCell>
        <mxCell id="72SExVHrg0FJt113ZIdG-9" value="" style="endArrow=classic;html=1;rounded=0;entryX=0.5;entryY=0;entryDx=0;entryDy=0;" edge="1" parent="1" target="72SExVHrg0FJt113ZIdG-4">
          <mxGeometry width="50" height="50" relative="1" as="geometry">
            <mxPoint x="284.5" y="490" as="sourcePoint" />
            <mxPoint x="284.5" y="540" as="targetPoint" />
          </mxGeometry>
        </mxCell>
        <mxCell id="72SExVHrg0FJt113ZIdG-10" value="" style="endArrow=classic;html=1;rounded=0;entryX=0.5;entryY=0;entryDx=0;entryDy=0;" edge="1" parent="1" target="72SExVHrg0FJt113ZIdG-5">
          <mxGeometry width="50" height="50" relative="1" as="geometry">
            <mxPoint x="284.5" y="560" as="sourcePoint" />
            <mxPoint x="285" y="590" as="targetPoint" />
          </mxGeometry>
        </mxCell>
        <mxCell id="72SExVHrg0FJt113ZIdG-11" value="Return result" style="rounded=1;whiteSpace=wrap;html=1;strokeColor=none;" vertex="1" parent="1">
          <mxGeometry x="150" y="660" width="270" height="50" as="geometry" />
        </mxCell>
        <mxCell id="72SExVHrg0FJt113ZIdG-12" value="" style="endArrow=classic;html=1;rounded=0;" edge="1" parent="1">
          <mxGeometry width="50" height="50" relative="1" as="geometry">
            <mxPoint x="420" y="390" as="sourcePoint" />
            <mxPoint x="480" y="390" as="targetPoint" />
          </mxGeometry>
        </mxCell>
        <mxCell id="72SExVHrg0FJt113ZIdG-13" value="" style="endArrow=classic;html=1;rounded=0;" edge="1" parent="1">
          <mxGeometry width="50" height="50" relative="1" as="geometry">
            <mxPoint x="420" y="464.5" as="sourcePoint" />
            <mxPoint x="480" y="464.5" as="targetPoint" />
          </mxGeometry>
        </mxCell>
        <mxCell id="72SExVHrg0FJt113ZIdG-14" value="" style="endArrow=classic;html=1;rounded=0;" edge="1" parent="1">
          <mxGeometry width="50" height="50" relative="1" as="geometry">
            <mxPoint x="420" y="534.5" as="sourcePoint" />
            <mxPoint x="480" y="534.5" as="targetPoint" />
          </mxGeometry>
        </mxCell>
        <mxCell id="72SExVHrg0FJt113ZIdG-15" value="" style="endArrow=classic;html=1;rounded=0;" edge="1" parent="1">
          <mxGeometry width="50" height="50" relative="1" as="geometry">
            <mxPoint x="420" y="609" as="sourcePoint" />
            <mxPoint x="480" y="609" as="targetPoint" />
          </mxGeometry>
        </mxCell>
        <mxCell id="72SExVHrg0FJt113ZIdG-16" value="Validation Error" style="text;html=1;align=center;verticalAlign=middle;whiteSpace=wrap;rounded=0;" vertex="1" parent="1">
          <mxGeometry x="450" y="360" width="120" height="30" as="geometry" />
        </mxCell>
        <mxCell id="72SExVHrg0FJt113ZIdG-17" value="Database error(s)" style="text;html=1;align=center;verticalAlign=middle;whiteSpace=wrap;rounded=0;" vertex="1" parent="1">
          <mxGeometry x="450" y="430" width="120" height="30" as="geometry" />
        </mxCell>
        <mxCell id="72SExVHrg0FJt113ZIdG-18" value="Database error(s)" style="text;html=1;align=center;verticalAlign=middle;whiteSpace=wrap;rounded=0;" vertex="1" parent="1">
          <mxGeometry x="450" y="580" width="120" height="30" as="geometry" />
        </mxCell>
        <mxCell id="72SExVHrg0FJt113ZIdG-19" value="Network" style="text;html=1;align=center;verticalAlign=middle;whiteSpace=wrap;rounded=0;" vertex="1" parent="1">
          <mxGeometry x="450" y="510" width="120" height="30" as="geometry" />
        </mxCell>
      </root>
    </mxGraphModel>
  </diagram>
</mxfile>
